<svg width="159" height="79" viewBox="0 0 159 79" fill="none" xmlns="http://www.w3.org/2000/svg">
<path fill-rule="evenodd" clip-rule="evenodd" d="M120.426 51.3403C114.684 51.3403 116.573 51.6866 116.134 48.451C115.83 46.2141 115.98 34.4186 115.98 31.5527C115.98 30.0588 122.439 30.6754 124.101 31.4776C125.261 32.0379 126.136 32.5749 126.874 33.5612C130.839 38.857 130.096 51.3403 120.426 51.3403ZM115.133 29.2372H112.381C112.412 30.6192 112.804 31.9727 112.804 34.0787V47.9723C112.804 53.405 109.936 53.0243 120.002 53.0243C127.22 53.0243 132.493 48.2604 132.493 41.0258C132.493 36.2454 131.607 33.0526 127.378 30.5341C124.138 28.6037 119.776 29.2372 115.133 29.2372Z" fill="#020202"/>
<path fill-rule="evenodd" clip-rule="evenodd" d="M37.4364 33.6577H37.86C38.0043 35.3796 41.8433 41.8021 41.8824 43.5518H33.4141C33.4716 42.866 34.034 41.7642 34.333 41.0974L37.4364 33.6577ZM26.6394 52.8138H30.0267C30.0267 50.456 30.1725 50.7118 31.144 48.4515L32.5672 45.2358H42.941C43.4493 47.4045 45.4815 49.6742 45.4815 52.8138H49.927C49.7628 52.1126 49.5965 51.9325 49.2525 51.3801L40.2623 31.4801C39.0689 29.0128 39.3514 28.8162 38.0719 28.8162C37.2611 28.8162 35.3786 33.6547 34.987 34.5903L32.2142 40.6744C31.1815 42.7013 30.4619 44.7108 29.4623 46.7794L27.368 51.2228C27.002 51.8076 26.698 52.1136 26.6394 52.8138Z" fill="#020202"/>
<path fill-rule="evenodd" clip-rule="evenodd" d="M93.7509 43.5518L97.9846 33.6577C98.6927 34.1733 101.236 40.4495 101.643 41.388C102.852 44.1778 103.529 43.5518 93.7509 43.5518ZM87.1881 52.8138C92.0508 52.8138 89.6079 53.2537 91.0241 49.8922C91.3662 49.08 91.7157 48.2733 92.0843 47.3676C92.3017 46.8337 92.821 45.2358 93.5391 45.2358H102.854C103.593 45.2358 104.108 46.8899 104.366 47.5219C104.717 48.3808 105.139 49.1572 105.525 50.1579C106.658 53.0875 103.725 52.8138 110.476 52.8138C110.241 51.8155 109.376 50.9571 108.929 49.931L99.9952 29.7642C99.3597 28.3489 98.1679 28.4748 97.5544 29.8622L87.1881 52.8138Z" fill="#020202"/>
<path fill-rule="evenodd" clip-rule="evenodd" d="M146.254 29.2372H136.304C136.304 30.1374 136.416 30.0976 136.484 30.7426C136.541 31.2974 136.489 31.809 136.548 32.3629C136.845 35.1467 136.843 46.9153 136.549 49.6901C136.441 50.7212 136.304 51.9071 136.304 52.8138H146.889C147.734 52.8138 148.583 53.8807 148.583 50.2883C146.938 50.2883 144.217 51.1298 139.903 51.1298V41.2363C142.496 41.2363 144.406 41.6573 146.678 41.6573C146.7 40.6804 147.025 40.2499 147.101 39.3417L139.903 39.7628V30.9212H144.772C146.124 30.9212 146.629 31.2507 147.736 31.3422C148.01 30.8272 148.525 29.7219 148.583 29.0267C147.509 29.0267 147.429 29.2372 146.254 29.2372Z" fill="#020202"/>
<path fill-rule="evenodd" clip-rule="evenodd" d="M66.0173 41.0258C66.0173 46.3589 68.7586 49.9942 73.3513 52.0474C76.4291 53.4234 78.0186 53.2348 81.2602 53.2348C82.3079 53.2348 84.7427 52.766 85.2856 52.3963C85.7748 52.0624 85.9146 51.3557 86.1609 50.7401C86.3993 50.144 86.6948 49.6429 86.7644 48.8143C85.9857 49.0213 86.1164 49.2069 85.5269 49.6891C85.2074 49.9494 84.6461 50.3191 84.2715 50.5461C79.6893 53.3184 69.8278 51.1099 69.8278 41.0258C69.8278 37.9981 69.8909 35.0825 72.5235 32.76C75.0645 30.5186 79.5951 29.8413 83.0215 31.2745C84.8138 32.0245 85.0267 32.7709 86.1289 33.0262C85.3532 29.7135 84.9921 29.3467 81.0549 29.0202C78.0767 28.7734 75.7941 28.9939 73.3608 30.014C69.2053 31.7563 66.0173 36.2962 66.0173 41.0258Z" fill="#020202"/>
<path fill-rule="evenodd" clip-rule="evenodd" d="M5.68042 39.7628C5.68042 43.1666 5.68493 46.0205 8.27049 48.7655C14.2839 55.1512 23.7578 53.3876 24.9723 52.2087C25.4635 51.7324 26.1942 49.7877 26.2162 48.8143C23.4549 50.2669 24.474 51.5508 18.1711 51.5508C13.1962 51.5508 9.27958 46.2908 9.27958 41.2363C9.27958 38.978 9.12283 37.5463 10.1224 35.5488C10.5756 34.6426 11.1375 33.5463 11.8787 32.874C12.5092 32.3027 13.7441 31.5134 14.643 31.2019C21.0891 28.9685 24.6633 32.7829 25.5812 33.0262C25.3148 29.8453 23.8805 29.3089 20.9064 29.0431C15.7277 28.5813 11.6303 29.5866 8.28251 33.5084C7.17126 34.8103 5.68042 37.4876 5.68042 39.7628Z" fill="#020202"/>
<path fill-rule="evenodd" clip-rule="evenodd" d="M51.6207 33.8682C51.6207 39.1487 54.1802 40.1225 57.7092 43.6025C62.2013 48.032 59.9032 51.7613 56.7017 51.7613C54.6194 51.7613 52.4194 49.926 52.2562 47.9723H51.6207C51.4289 48.7929 51.1975 50.5709 51.1975 51.5508C59.2356 56.9029 68.7406 49.2253 59.1921 40.444C56.7522 38.2002 54.373 36.8282 54.373 33.0262C54.373 29.7453 60.3464 29.6045 61.1477 33.0262H61.7826C61.7826 31.7055 61.9945 31.1327 61.9945 30.0792C56.0797 26.9675 51.6207 30.4714 51.6207 33.8682Z" fill="#020202"/>
</svg>
